# xmcd
#
# Track frame offsets:
# 150
# 27272
# 51935
# 76832
# 92227
# 127945
# 144757
# 183250
# 204652
# 232340
# 248717
# 283720
# 315737
#
# Disc length: 4655 seconds
#
# Revision: 0
# Processed by: cddbd v1.5PL3 Copyright (c) Steve Scherf et al.
# Submitted via: Audion 3.0.2 (http://www.panic.com/audion/)
#
DISCID=b1122d0d
DTITLE=Leo Tolstoy (read by Laura Paton) - Anna Karenina - Disc 1
DYEAR=1900
DGENRE=
TTITLE0=Prince Stepan Arkadyevitch Oblonsky in trouble
TTITLE1=Darya Alexandrovna - Dolly - wan and pale
TTITLE2=Konstantin Dmitrich Levin - a suitor on the ice
TTITLE3=A young man in love
TTITLE4=The Princess Kitty Scherbatskaya
TTITLE5=Count Alexei Kirillitch Vronsky
TTITLE6=At the railway station - Madame Arkadyevitch KareninaAr
TTITLE7=An accident on the rails
TTITLE8=Dolly confides, Anna advises
TTITLE9=Dolly addresses her husband as 'thou'
TTITLE10=The ball begins
TTITLE11=A skeleton in the cupboard
TTITLE12=An unexpected meeting on the platform
EXTD=
EXTT0=
EXTT1=
EXTT2=
EXTT3=
EXTT4=
EXTT5=
EXTT6=
EXTT7=
EXTT8=
EXTT9=
EXTT10=
EXTT11=
EXTT12=
PLAYORDER=
